<?xml version="1.0" encoding="UTF-8"?>
<svg width="700pt" height="700pt" version="1.1" viewBox="0 0 700 700" xmlns="http://www.w3.org/2000/svg" xmlns:xlink="http://www.w3.org/1999/xlink">
 <g>
  <path d="m350 359.14c19.126 0 34.652 15.527 34.652 34.652s-15.527 34.657-34.652 34.656-34.652-15.531-34.652-34.656 15.527-34.652 34.652-34.652zm0-113.79c19.125 0 34.652 15.527 34.652 34.652s-15.527 34.652-34.652 34.652-34.652-15.527-34.652-34.652 15.527-34.652 34.653-34.652zm0-113.79c19.125 0 34.652 15.531 34.652 34.656s-15.527 34.652-34.652 34.652-34.652-15.527-34.652-34.653 15.527-34.656 34.652-34.656z" fill="#fff" />
 </g>
</svg>
