<?xml version="1.0" encoding="UTF-8" standalone="no"?>
<!-- Created with Inkscape (http://www.inkscape.org/) -->

<svg
   version="1.1"
   id="svg2"
   xml:space="preserve"
   width="583.05865"
   height="488.63733"
   viewBox="0 0 583.05866 488.63733"
   sodipodi:docname="under-the-hood3.svg"
   inkscape:version="1.1.2 (0a00cf5339, 2022-02-04)"
   xmlns:inkscape="http://www.inkscape.org/namespaces/inkscape"
   xmlns:sodipodi="http://sodipodi.sourceforge.net/DTD/sodipodi-0.dtd"
   xmlns="http://www.w3.org/2000/svg"
   xmlns:svg="http://www.w3.org/2000/svg"><defs
     id="defs6" /><sodipodi:namedview
     id="namedview4"
     pagecolor="#ffffff"
     bordercolor="#666666"
     borderopacity="1.0"
     inkscape:pageshadow="2"
     inkscape:pageopacity="0.0"
     inkscape:pagecheckerboard="0"
     showgrid="false"
     fit-margin-top="50"
     fit-margin-left="50"
     fit-margin-right="50"
     fit-margin-bottom="50"
     lock-margins="true"
     inkscape:zoom="1.0345192"
     inkscape:cx="233.92508"
     inkscape:cy="280.80676"
     inkscape:window-width="1920"
     inkscape:window-height="1016"
     inkscape:window-x="0"
     inkscape:window-y="0"
     inkscape:window-maximized="1"
     inkscape:current-layer="g8" /><g
     id="g8"
     inkscape:groupmode="layer"
     inkscape:label="ink_ext_XXXXXX"
     transform="matrix(1.3333333,0,0,-1.3333333,-133.84533,659.07598)"><path
       d="m 283.623,358.992 c 19.422,0 36.211,-11.658 43.723,-28.333 h -15.061 c -6.269,9.136 -16.785,15.151 -28.662,15.151 -19.133,0 -34.741,-15.608 -34.741,-34.742 0,-19.134 15.608,-34.742 34.741,-34.742 11.877,0 22.393,6.014 28.662,15.151 h 15.061 c -7.514,-16.675 -24.301,-28.332 -43.723,-28.332 -26.393,0 -47.923,21.528 -47.923,47.923 0,26.395 21.53,47.924 47.923,47.924 v 0"
       style="fill:#b0d5fb;fill-opacity:1;fill-rule:evenodd;stroke:none;stroke-width:0.1"
       id="path14" /><path
       d="m 269.803,456.807 h 27.64 l 6.28,-31.43 c 6.763,-1.188 13.328,-2.963 19.64,-5.275 l 21.162,24.089 23.936,-13.82 -10.309,-30.456 c 5.176,-4.351 9.967,-9.144 14.317,-14.319 l 30.459,10.31 13.82,-23.937 -17.291,-15.189 h -41.855 c -15.368,24.756 -42.801,41.302 -73.979,41.302 -47.922,0 -87.012,-39.091 -87.012,-87.014 0,-47.923 39.09,-87.013 87.012,-87.013 31.176,0 58.609,16.545 73.979,41.301 h 41.855 l 17.291,-15.19 -6.912,-11.968 -6.908,-11.968 -30.459,10.311 c -4.35,-5.178 -9.143,-9.968 -14.319,-14.318 l 10.311,-30.459 -11.967,-6.909 -11.971,-6.911 -21.162,24.091 c -6.31,-2.312 -12.875,-4.087 -19.638,-5.276 l -6.28,-31.43 h -13.82 -13.82 l -6.279,31.43 c -6.762,1.189 -13.328,2.964 -19.639,5.276 l -21.162,-24.091 -11.969,6.91 -11.967,6.91 10.309,30.458 c -5.176,4.35 -9.967,9.142 -14.318,14.319 l -30.457,-10.311 -6.911,11.968 -6.91,11.968 24.091,21.164 c -2.313,6.309 -4.087,12.875 -5.277,19.637 l -31.43,6.281 v 27.64 l 31.43,6.28 c 1.19,6.763 2.965,13.327 5.276,19.637 l -24.09,21.164 13.821,23.937 30.456,-10.31 c 4.351,5.176 9.143,9.968 14.319,14.319 l -10.31,30.456 23.937,13.82 21.162,-24.088 c 6.311,2.311 12.877,4.086 19.639,5.274 l 6.279,31.43 v 0"
       style="fill:#88aaf1;fill-opacity:1;fill-rule:evenodd;stroke:none;stroke-width:0.1"
       id="path16" /><path
       d="m 283.623,332.796 c 9.695,0 17.94,-6.404 20.723,-15.198 h 117.433 c 2.784,8.794 11.028,15.198 20.723,15.198 11.967,0 21.728,-9.761 21.728,-21.728 0,-11.967 -9.761,-21.729 -21.728,-21.729 -9.693,0 -17.939,6.406 -20.723,15.199 H 304.346 c -2.783,-8.793 -11.03,-15.199 -20.723,-15.199 -11.967,0 -21.727,9.762 -21.727,21.729 0,11.967 9.76,21.728 21.727,21.728 z m 158.879,-13.071 c -4.768,0 -8.658,-3.889 -8.658,-8.657 0,-4.767 3.89,-8.657 8.658,-8.657 4.766,0 8.656,3.89 8.656,8.657 0,4.768 -3.89,8.657 -8.656,8.657 z m -158.879,0 c 4.768,0 8.656,-3.889 8.656,-8.657 0,-4.767 -3.888,-8.657 -8.656,-8.657 -4.767,0 -8.656,3.89 -8.656,8.657 0,4.768 3.889,8.657 8.656,8.657 v 0"
       style="fill:#b8faf6;fill-opacity:1;fill-rule:evenodd;stroke:none;stroke-width:0.1"
       id="path18" /><path
       d="m 283.623,385.036 c 29.022,0 54.227,-16.866 66.326,-41.297 h 54.694 l 24.531,21.553 h 28.553 c 2.783,8.794 11.029,15.199 20.722,15.199 11.967,0 21.729,-9.761 21.729,-21.729 0,-11.967 -9.762,-21.728 -21.729,-21.728 -9.693,0 -17.937,6.405 -20.72,15.198 h -23.633 l -24.532,-21.573 v 0 h -68.216 c -8.19,24.017 -30.996,41.372 -57.725,41.372 -33.575,0 -60.962,-27.388 -60.962,-60.963 0,-33.576 27.387,-60.963 60.962,-60.963 26.729,0 49.533,17.335 57.725,41.352 h 68.216 v 0 l 24.532,-21.553 h 23.633 c 2.783,8.793 11.027,15.198 20.72,15.198 11.967,0 21.729,-9.761 21.729,-21.729 0,-11.967 -9.762,-21.727 -21.729,-21.727 -9.693,0 -17.939,6.404 -20.722,15.197 h -28.553 l -24.531,21.553 h -54.696 c -12.099,-24.428 -37.304,-41.294 -66.324,-41.294 -40.737,0 -73.967,33.228 -73.967,73.966 0,40.738 33.23,73.968 73.967,73.968 z M 478.449,254.717 c -4.767,0 -8.656,3.889 -8.656,8.656 0,4.768 3.889,8.657 8.656,8.657 4.768,0 8.656,-3.889 8.656,-8.657 0,-4.767 -3.888,-8.656 -8.656,-8.656 z m 0,112.701 c -4.767,0 -8.656,-3.888 -8.656,-8.656 0,-4.767 3.889,-8.657 8.656,-8.657 4.768,0 8.656,3.89 8.656,8.657 0,4.768 -3.888,8.656 -8.656,8.656 v 0"
       style="fill:#b8faf6;fill-opacity:1;fill-rule:evenodd;stroke:none;stroke-width:0.1"
       id="path20" /></g></svg>
